<svg xmlns="http://www.w3.org/2000/svg" width="881.99" height="189.81" viewBox="0 0 881.99 189.81">
  <g id="GI_LOGO" transform="translate(-99 -84.09)">
    <path id="Path_3179" data-name="Path 3179" d="M164.86,189.34a38.348,38.348,0,0,1-14.94,3.12,53.25,53.25,0,0,1-21.4-4.13,45.907,45.907,0,0,1-16.03-11.39,50.472,50.472,0,0,1-10.01-17.05A62.581,62.581,0,0,1,99,138.78a64.7,64.7,0,0,1,3.48-21.54A51.907,51.907,0,0,1,112.49,99.9a45.782,45.782,0,0,1,16.03-11.6,52.228,52.228,0,0,1,21.4-4.21,50.191,50.191,0,0,1,15.45,2.39,43.725,43.725,0,0,1,13.49,7.04,38.044,38.044,0,0,1,14.73,27.12H171.83q-2.025-8.7-7.84-13.05a22.736,22.736,0,0,0-14.07-4.36,26.625,26.625,0,0,0-13.06,2.97,24.628,24.628,0,0,0-8.7,7.98,34.847,34.847,0,0,0-4.86,11.39,56.428,56.428,0,0,0-1.52,13.2,53.005,53.005,0,0,0,1.52,12.7,34.164,34.164,0,0,0,4.86,11.09,24.9,24.9,0,0,0,8.7,7.91,26.625,26.625,0,0,0,13.06,2.97q11.31,0,17.48-5.73t7.18-16.61H151.66V134.13h43.52v56H180.67l-2.32-11.75q-6.09,7.845-13.49,10.96" fill="#040707"/>
    <path id="Path_3180" data-name="Path 3180" d="M231.45,115.14v13.93h.29a24.926,24.926,0,0,1,3.92-6.45,25.8,25.8,0,0,1,5.66-5.08,27.6,27.6,0,0,1,6.82-3.26,24.4,24.4,0,0,1,7.54-1.16,16.63,16.63,0,0,1,4.5.72v19.15q-1.455-.285-3.48-.51a38.026,38.026,0,0,0-3.91-.21,22.081,22.081,0,0,0-9.58,1.88,16.7,16.7,0,0,0-6.31,5.15,20.688,20.688,0,0,0-3.41,7.62,41.232,41.232,0,0,0-1.01,9.42v33.8h-20.6v-75Z" fill="#040707"/>
    <path id="Path_3181" data-name="Path 3181" d="M315.44,153.44a9.238,9.238,0,0,1-3.26,1.81,32.283,32.283,0,0,1-4.21,1.09c-1.5.29-3.07.53-4.71.73s-3.29.43-4.93.73a37.717,37.717,0,0,0-4.57,1.15,13.707,13.707,0,0,0-3.92,1.96,9.406,9.406,0,0,0-2.69,3.11,10.031,10.031,0,0,0-1.01,4.79,9.737,9.737,0,0,0,1.01,4.64,7.752,7.752,0,0,0,2.76,2.97,11.512,11.512,0,0,0,4.06,1.53,25.944,25.944,0,0,0,4.79.43q6.09,0,9.43-2.03a13.674,13.674,0,0,0,4.93-4.86,15.511,15.511,0,0,0,1.96-5.73,39.564,39.564,0,0,0,.36-4.64v-7.68ZM267.86,138.2a23.916,23.916,0,0,1,3.63-12.04,24.866,24.866,0,0,1,8.12-7.69,35.158,35.158,0,0,1,11.1-4.14,63.314,63.314,0,0,1,12.41-1.24,84.4,84.4,0,0,1,11.46.8,35.19,35.19,0,0,1,10.59,3.12,20.859,20.859,0,0,1,7.83,6.46q3.045,4.14,3.05,10.95v39.02a77.664,77.664,0,0,0,.58,9.72,17.767,17.767,0,0,0,2.03,6.97H317.77a28.513,28.513,0,0,1-.94-3.55,31.985,31.985,0,0,1-.51-3.7,26.874,26.874,0,0,1-11.61,7.11,46.421,46.421,0,0,1-13.64,2.03,37.223,37.223,0,0,1-10.01-1.3,23.052,23.052,0,0,1-8.12-4.06,18.965,18.965,0,0,1-5.44-6.97,23.61,23.61,0,0,1-1.96-10.01,21.892,21.892,0,0,1,2.25-10.52,18.815,18.815,0,0,1,5.8-6.6,25.872,25.872,0,0,1,8.12-3.7,88.767,88.767,0,0,1,9.21-1.96q4.635-.735,9.14-1.16a55.123,55.123,0,0,0,7.98-1.31,13.9,13.9,0,0,0,5.51-2.54,5.59,5.59,0,0,0,1.89-4.85,10.867,10.867,0,0,0-1.09-5.3,7.963,7.963,0,0,0-2.9-3.05,11.293,11.293,0,0,0-4.21-1.45,34.647,34.647,0,0,0-5.15-.37c-4.06,0-7.25.88-9.57,2.61s-3.68,4.64-4.06,8.7h-20.6Z" fill="#040707"/>
    <path id="Path_3182" data-name="Path 3182" d="M372.01,115.14v10.44h.43a23.625,23.625,0,0,1,10.16-9.5,29.406,29.406,0,0,1,12.77-2.98q8.265,0,13.56,2.25a20.173,20.173,0,0,1,8.34,6.23,24.331,24.331,0,0,1,4.28,9.72,60.546,60.546,0,0,1,1.24,12.69v46.13h-20.6V147.76q0-9.285-2.9-13.85t-10.3-4.58q-8.415,0-12.19,5.01t-3.77,16.46v39.31h-20.6v-75h19.58Z" fill="#040707"/>
    <path id="Path_3183" data-name="Path 3183" d="M491.26,143.5a21.876,21.876,0,0,0-2.97-7.54,16.8,16.8,0,0,0-5.44-5.3,16.006,16.006,0,0,0-8.42-2.03,16.789,16.789,0,0,0-8.56,2.03,16.249,16.249,0,0,0-5.59,5.37,23.618,23.618,0,0,0-3.04,7.61,41.261,41.261,0,0,0-.95,8.92,38,38,0,0,0,1.02,8.7,23.682,23.682,0,0,0,3.27,7.76,18.139,18.139,0,0,0,5.66,5.51,15.337,15.337,0,0,0,8.2,2.1,16.394,16.394,0,0,0,8.49-2.03,15.489,15.489,0,0,0,5.44-5.44,24.445,24.445,0,0,0,2.9-7.76,46.209,46.209,0,0,0-.01-17.9m.87,37.07a21.371,21.371,0,0,1-9.5,8.78,31.6,31.6,0,0,1-13.28,2.68,32.168,32.168,0,0,1-14.8-3.26,29.679,29.679,0,0,1-10.52-8.85,39.966,39.966,0,0,1-6.24-12.84,53.982,53.982,0,0,1-2.1-15.09,50.7,50.7,0,0,1,2.1-14.58,37.785,37.785,0,0,1,6.24-12.4,30.261,30.261,0,0,1,24.88-11.89,29.538,29.538,0,0,1,12.69,2.82,22.178,22.178,0,0,1,9.5,8.34h.29V86.56H512V190.14H492.42v-9.57Z" fill="#040707"/>
    <path id="Path_3184" data-name="Path 3184" d="M600.35,145.75v15.52H571.48v28.87H555.96V161.27H527.09V145.75h28.87V116.88h15.52v28.87Z" fill="#fcd404"/>
    <rect id="Rectangle_327" data-name="Rectangle 327" width="22.78" height="103.58" transform="translate(617.61 86.56)" fill="#040707"/>
    <path id="Path_3185" data-name="Path 3185" d="M711.03,143.5a21.877,21.877,0,0,0-2.97-7.54,16.8,16.8,0,0,0-5.44-5.3,15.993,15.993,0,0,0-8.41-2.03,16.789,16.789,0,0,0-8.56,2.03,16.249,16.249,0,0,0-5.59,5.37,23.618,23.618,0,0,0-3.04,7.61,41.261,41.261,0,0,0-.95,8.92,38.545,38.545,0,0,0,1.01,8.7,23.9,23.9,0,0,0,3.27,7.76,18.139,18.139,0,0,0,5.66,5.51,15.313,15.313,0,0,0,8.2,2.1,16.394,16.394,0,0,0,8.49-2.03,15.489,15.489,0,0,0,5.44-5.44,24.447,24.447,0,0,0,2.9-7.76,46.206,46.206,0,0,0-.01-17.9m.87,37.07a21.371,21.371,0,0,1-9.5,8.78,31.6,31.6,0,0,1-13.28,2.68,32.168,32.168,0,0,1-14.8-3.26,29.679,29.679,0,0,1-10.52-8.85,39.966,39.966,0,0,1-6.24-12.84,53.981,53.981,0,0,1-2.1-15.09,50.7,50.7,0,0,1,2.1-14.58,37.785,37.785,0,0,1,6.24-12.4,30.261,30.261,0,0,1,24.88-11.89,29.538,29.538,0,0,1,12.69,2.82,22.178,22.178,0,0,1,9.5,8.34h.29V86.56h20.6V190.14H712.18v-9.57Z" fill="#040707"/>
    <path id="Path_3186" data-name="Path 3186" d="M792.98,132.69q-3.69-4.065-11.22-4.06a17.882,17.882,0,0,0-8.18,1.67,15.612,15.612,0,0,0-5.22,4.13,15.21,15.21,0,0,0-2.75,5.22,23.331,23.331,0,0,0-.94,4.93h33.46q-1.455-7.83-5.15-11.89m-23.24,39.46q4.635,4.5,13.33,4.5a18.282,18.282,0,0,0,10.71-3.12q4.485-3.12,5.5-6.6h18.1q-4.35,13.485-13.32,19.3-8.985,5.79-21.72,5.8a42.81,42.81,0,0,1-15.93-2.82,33.071,33.071,0,0,1-12.02-8.06,36.048,36.048,0,0,1-7.6-12.47,45.706,45.706,0,0,1-2.68-15.97,43.879,43.879,0,0,1,2.75-15.66,36.224,36.224,0,0,1,19.91-20.89,38.722,38.722,0,0,1,15.57-3.04,35.612,35.612,0,0,1,16.65,3.7,33.186,33.186,0,0,1,11.66,9.94,40.917,40.917,0,0,1,6.59,14.21,53.26,53.26,0,0,1,1.45,16.68H764.67q.435,10.005,5.07,14.5" fill="#040707"/>
    <path id="Path_3187" data-name="Path 3187" d="M878.15,153.44a9.238,9.238,0,0,1-3.26,1.81,32.284,32.284,0,0,1-4.21,1.09c-1.5.29-3.07.53-4.71.73s-3.29.43-4.93.73a37.717,37.717,0,0,0-4.57,1.15,13.707,13.707,0,0,0-3.92,1.96,9.265,9.265,0,0,0-2.68,3.11,10.027,10.027,0,0,0-1.02,4.79,9.619,9.619,0,0,0,1.02,4.64,7.677,7.677,0,0,0,2.76,2.97,11.512,11.512,0,0,0,4.06,1.53,25.943,25.943,0,0,0,4.79.43q6.09,0,9.43-2.03a13.674,13.674,0,0,0,4.93-4.86,15.694,15.694,0,0,0,1.96-5.73,39.564,39.564,0,0,0,.36-4.64v-7.68ZM830.57,138.2a23.916,23.916,0,0,1,3.63-12.04,24.768,24.768,0,0,1,8.12-7.69,35.067,35.067,0,0,1,11.1-4.14,63.289,63.289,0,0,1,12.4-1.24,84.4,84.4,0,0,1,11.46.8,35.19,35.19,0,0,1,10.59,3.12,20.86,20.86,0,0,1,7.83,6.46q3.045,4.14,3.05,10.95v39.02a77.658,77.658,0,0,0,.58,9.72,17.6,17.6,0,0,0,2.03,6.97H880.47a28.513,28.513,0,0,1-.94-3.55,29.947,29.947,0,0,1-.5-3.7,26.874,26.874,0,0,1-11.61,7.11,46.421,46.421,0,0,1-13.64,2.03,37.223,37.223,0,0,1-10.01-1.3,23.052,23.052,0,0,1-8.12-4.06,18.861,18.861,0,0,1-5.44-6.97,23.61,23.61,0,0,1-1.96-10.01,21.892,21.892,0,0,1,2.25-10.52,18.815,18.815,0,0,1,5.8-6.6,25.872,25.872,0,0,1,8.12-3.7,88.766,88.766,0,0,1,9.21-1.96c3.1-.49,6.14-.88,9.14-1.16a55.122,55.122,0,0,0,7.98-1.31,13.9,13.9,0,0,0,5.51-2.54,5.59,5.59,0,0,0,1.89-4.85,10.866,10.866,0,0,0-1.09-5.3,8.036,8.036,0,0,0-2.9-3.05,11.293,11.293,0,0,0-4.21-1.45,34.646,34.646,0,0,0-5.15-.37c-4.06,0-7.25.88-9.57,2.61s-3.68,4.64-4.06,8.7h-20.6Z" fill="#040707"/>
    <path id="Path_3188" data-name="Path 3188" d="M932.48,171.5a12.03,12.03,0,0,0,3.55,3.91,15.3,15.3,0,0,0,5,2.25,23.719,23.719,0,0,0,5.87.73,21.98,21.98,0,0,0,4.57-.51,15.874,15.874,0,0,0,4.35-1.6,9.771,9.771,0,0,0,3.26-2.9,7.6,7.6,0,0,0,1.31-4.57c0-3.1-2.06-5.41-6.16-6.96a122.148,122.148,0,0,0-17.19-4.64c-3-.68-5.92-1.47-8.78-2.4a29.838,29.838,0,0,1-7.62-3.63,17.7,17.7,0,0,1-5.37-5.66,15.958,15.958,0,0,1-2.03-8.34q0-7.245,2.83-11.89a20.708,20.708,0,0,1,7.47-7.32,32.919,32.919,0,0,1,10.45-3.78,63.9,63.9,0,0,1,11.89-1.09,59.678,59.678,0,0,1,11.82,1.16,31.383,31.383,0,0,1,10.23,3.91,23.532,23.532,0,0,1,7.47,7.33,24.686,24.686,0,0,1,3.55,11.54H959.37q-.435-5.955-4.5-8.06a20.587,20.587,0,0,0-9.57-2.1,34.253,34.253,0,0,0-3.77.22,12.8,12.8,0,0,0-3.7.94,7.63,7.63,0,0,0-2.83,2.1,5.522,5.522,0,0,0-1.16,3.7,5.676,5.676,0,0,0,2.03,4.5,15.742,15.742,0,0,0,5.29,2.83,67.758,67.758,0,0,0,7.47,1.96c2.8.58,5.66,1.21,8.56,1.88a89.428,89.428,0,0,1,8.78,2.46,29,29,0,0,1,7.62,3.85,18.545,18.545,0,0,1,5.37,5.95,17.491,17.491,0,0,1,2.03,8.78,22.765,22.765,0,0,1-10.73,20.45,31.769,31.769,0,0,1-10.95,4.28,63.96,63.96,0,0,1-12.55,1.23,62.069,62.069,0,0,1-12.76-1.3,33.719,33.719,0,0,1-11.1-4.36,24.854,24.854,0,0,1-7.98-8.05,25.19,25.19,0,0,1-3.41-12.55h19.58a11.437,11.437,0,0,0,1.39,5.75" fill="#040707"/>
    <path id="Path_3189" data-name="Path 3189" d="M311.5,236a11.322,11.322,0,0,0-5.8-4.64,11.34,11.34,0,0,0-3.9-.67,12.931,12.931,0,0,0-6.33,1.44,11.836,11.836,0,0,0-4.21,3.86,16.811,16.811,0,0,0-2.35,5.52,27.608,27.608,0,0,0-.74,6.4,25.631,25.631,0,0,0,.74,6.15,16.521,16.521,0,0,0,2.35,5.38,12.121,12.121,0,0,0,4.21,3.83,12.878,12.878,0,0,0,6.33,1.44,10.2,10.2,0,0,0,7.91-3.1,14.331,14.331,0,0,0,3.47-8.15h10.68a25.546,25.546,0,0,1-2.18,8.51,20.45,20.45,0,0,1-4.64,6.46,19.575,19.575,0,0,1-6.75,4.07,24.889,24.889,0,0,1-8.5,1.4,25.6,25.6,0,0,1-10.36-2.01,22.052,22.052,0,0,1-7.76-5.51,24.289,24.289,0,0,1-4.85-8.25,30.411,30.411,0,0,1-1.69-10.23,31.23,31.23,0,0,1,1.69-10.44,24.832,24.832,0,0,1,4.85-8.39,22.249,22.249,0,0,1,7.76-5.62,26.839,26.839,0,0,1,18.2-.84,21.216,21.216,0,0,1,6.61,3.48,18.743,18.743,0,0,1,4.81,5.66,20.149,20.149,0,0,1,2.39,7.73H312.76A8.831,8.831,0,0,0,311.5,236" fill="#040707"/>
    <path id="Path_3190" data-name="Path 3190" d="M339.47,258.91a11.271,11.271,0,0,0,1.44,3.72,7.7,7.7,0,0,0,2.71,2.64,8.3,8.3,0,0,0,4.21.98,8.574,8.574,0,0,0,4.26-.98,7.626,7.626,0,0,0,2.74-2.64,11.271,11.271,0,0,0,1.44-3.72,21.345,21.345,0,0,0,.42-4.25,21.8,21.8,0,0,0-.42-4.28,10.913,10.913,0,0,0-1.44-3.73,7.971,7.971,0,0,0-2.74-2.64,8.243,8.243,0,0,0-4.26-1.02,7.682,7.682,0,0,0-6.92,3.66,10.913,10.913,0,0,0-1.44,3.73,21.871,21.871,0,0,0-.42,4.28,21.419,21.419,0,0,0,.42,4.25m-9.07-12.16a17.007,17.007,0,0,1,3.79-6.04,17.2,17.2,0,0,1,5.9-3.87,20.793,20.793,0,0,1,7.73-1.37,21.029,21.029,0,0,1,7.76,1.37,16.55,16.55,0,0,1,9.73,9.91,22.324,22.324,0,0,1,1.34,7.91,21.983,21.983,0,0,1-1.34,7.87,17.149,17.149,0,0,1-3.79,6.01,16.58,16.58,0,0,1-5.94,3.83,23.216,23.216,0,0,1-15.49,0,16.546,16.546,0,0,1-5.9-3.83,16.969,16.969,0,0,1-3.79-6.01,21.982,21.982,0,0,1-1.34-7.87,22.511,22.511,0,0,1,1.34-7.91" fill="#040707"/>
    <path id="Path_3191" data-name="Path 3191" d="M382.68,236.46v4.91h.14a14.2,14.2,0,0,1,4.74-4.35,12.856,12.856,0,0,1,6.36-1.55,14.657,14.657,0,0,1,6.29,1.34,8.822,8.822,0,0,1,4.32,4.7,15.409,15.409,0,0,1,4.39-4.21,11.66,11.66,0,0,1,6.57-1.83,19.707,19.707,0,0,1,5.34.7,10.787,10.787,0,0,1,4.22,2.25,10.372,10.372,0,0,1,2.74,4.04,16.521,16.521,0,0,1,.98,6.01v24.31h-9.98V252.2c0-1.22-.05-2.37-.14-3.44a7.4,7.4,0,0,0-.77-2.81,4.657,4.657,0,0,0-1.86-1.9,6.718,6.718,0,0,0-3.34-.7,6.375,6.375,0,0,0-3.41.81,5.779,5.779,0,0,0-2.03,2.11,8.418,8.418,0,0,0-.98,2.95,21.8,21.8,0,0,0-.24,3.34V272.8h-9.98V252.42c0-1.08-.03-2.14-.07-3.2a9.079,9.079,0,0,0-.6-2.91,4.506,4.506,0,0,0-1.76-2.15,6.625,6.625,0,0,0-3.62-.81,7.062,7.062,0,0,0-1.86.32,6.146,6.146,0,0,0-2.25,1.19,6.916,6.916,0,0,0-1.86,2.53,10.328,10.328,0,0,0-.77,4.31v21.08h-9.98V236.45h9.41Z" fill="#040707"/>
    <path id="Path_3192" data-name="Path 3192" d="M446.2,236.46v4.91h.14a14.2,14.2,0,0,1,4.74-4.35,12.856,12.856,0,0,1,6.36-1.55,14.657,14.657,0,0,1,6.29,1.34,8.822,8.822,0,0,1,4.32,4.7,15.409,15.409,0,0,1,4.39-4.21,11.66,11.66,0,0,1,6.57-1.83,19.707,19.707,0,0,1,5.34.7,10.857,10.857,0,0,1,4.22,2.25,10.372,10.372,0,0,1,2.74,4.04,16.521,16.521,0,0,1,.98,6.01v24.31h-9.98V252.2c0-1.22-.05-2.37-.14-3.44a7.4,7.4,0,0,0-.77-2.81,4.657,4.657,0,0,0-1.86-1.9,6.718,6.718,0,0,0-3.34-.7,6.375,6.375,0,0,0-3.41.81,5.889,5.889,0,0,0-2.04,2.11,8.418,8.418,0,0,0-.98,2.95,21.8,21.8,0,0,0-.24,3.34V272.8h-9.98V252.42c0-1.08-.03-2.14-.07-3.2a9.079,9.079,0,0,0-.6-2.91,4.506,4.506,0,0,0-1.76-2.15,6.625,6.625,0,0,0-3.62-.81,7.062,7.062,0,0,0-1.86.32,6.146,6.146,0,0,0-2.25,1.19,6.916,6.916,0,0,0-1.86,2.53,10.328,10.328,0,0,0-.77,4.31v21.08h-9.98V236.45h9.42Z" fill="#040707"/>
    <path id="Path_3193" data-name="Path 3193" d="M524.62,272.78v-5.06h-.21a11.244,11.244,0,0,1-4.92,4.57,14.5,14.5,0,0,1-6.18,1.4,17.515,17.515,0,0,1-6.57-1.05,9.635,9.635,0,0,1-4.04-2.98,11.652,11.652,0,0,1-2.07-4.71,29.125,29.125,0,0,1-.6-6.14V236.46h9.98v20.52c0,3,.47,5.23,1.4,6.71s2.6,2.21,4.99,2.21q4.065,0,5.9-2.42t1.83-7.97V236.47h9.98V272.8h-9.49Z" fill="#040707"/>
    <path id="Path_3194" data-name="Path 3194" d="M551.04,236.46v5.06h.21a11.375,11.375,0,0,1,4.92-4.6,14.257,14.257,0,0,1,6.18-1.44,17.061,17.061,0,0,1,6.57,1.09,9.794,9.794,0,0,1,4.04,3.02,11.518,11.518,0,0,1,2.07,4.71,29.123,29.123,0,0,1,.6,6.14v22.35h-9.98V252.27q0-4.5-1.4-6.71t-4.99-2.21q-4.065,0-5.9,2.42t-1.83,7.98V272.8h-9.98V236.47h9.49Z" fill="#040707"/>
    <path id="Path_3195" data-name="Path 3195" d="M593.34,272.78h-9.98V236.45h9.98Zm-9.98-50.17h9.98v8.22h-9.98Z" fill="#040707"/>
    <path id="Path_3196" data-name="Path 3196" d="M618.42,242.99a6.95,6.95,0,0,0-4,1.09,8.665,8.665,0,0,0-2.64,2.81,12.167,12.167,0,0,0-1.44,3.8,20.624,20.624,0,0,0-.42,4.11,19.708,19.708,0,0,0,.42,4,12.41,12.41,0,0,0,1.37,3.69,7.927,7.927,0,0,0,2.57,2.71,7.075,7.075,0,0,0,3.93,1.06,7.306,7.306,0,0,0,5.52-2.01,9.371,9.371,0,0,0,2.42-5.38h9.63q-.99,7.245-5.62,11.03t-11.88,3.79a19.72,19.72,0,0,1-7.48-1.37,16.5,16.5,0,0,1-5.79-3.83,17.352,17.352,0,0,1-3.72-5.87,20.31,20.31,0,0,1-1.34-7.48,24.159,24.159,0,0,1,1.23-7.83,17.621,17.621,0,0,1,3.62-6.25,16.4,16.4,0,0,1,5.83-4.11,19.691,19.691,0,0,1,7.87-1.48,22.835,22.835,0,0,1,6.22.84,16.719,16.719,0,0,1,5.34,2.56,13.246,13.246,0,0,1,5.51,10.37H625.8c-.65-4.16-3.12-6.25-7.38-6.25" fill="#040707"/>
    <path id="Path_3197" data-name="Path 3197" d="M663.89,255a4.388,4.388,0,0,1-1.58.88,15.97,15.97,0,0,1-2.04.52c-.72.14-1.48.26-2.28.35s-1.59.22-2.39.36a18.821,18.821,0,0,0-2.21.56,6.384,6.384,0,0,0-1.9.95,4.624,4.624,0,0,0-1.3,1.51,5.572,5.572,0,0,0,0,4.57,3.722,3.722,0,0,0,1.34,1.44,5.456,5.456,0,0,0,1.97.74,12.591,12.591,0,0,0,2.32.21,8.792,8.792,0,0,0,4.57-.98,6.732,6.732,0,0,0,2.39-2.35,7.539,7.539,0,0,0,.95-2.78,18.716,18.716,0,0,0,.18-2.25V255Zm-23.05-7.37a11.642,11.642,0,0,1,1.76-5.84,12.048,12.048,0,0,1,3.93-3.72,17.277,17.277,0,0,1,5.38-2,30.4,30.4,0,0,1,6.01-.6,40.264,40.264,0,0,1,5.55.39,17.019,17.019,0,0,1,5.13,1.51,10,10,0,0,1,3.79,3.13,8.74,8.74,0,0,1,1.48,5.3v18.9a37.5,37.5,0,0,0,.28,4.71,8.3,8.3,0,0,0,.98,3.37H665.01a16.751,16.751,0,0,1-.46-1.72,15.388,15.388,0,0,1-.24-1.79,13.039,13.039,0,0,1-5.62,3.44,22.706,22.706,0,0,1-6.61.98,17.816,17.816,0,0,1-4.84-.63,11.146,11.146,0,0,1-3.94-1.97,9.144,9.144,0,0,1-2.63-3.37,11.464,11.464,0,0,1-.95-4.85,10.517,10.517,0,0,1,1.09-5.09,9.207,9.207,0,0,1,2.81-3.2,12.835,12.835,0,0,1,3.93-1.79,43.172,43.172,0,0,1,4.46-.95c1.5-.23,2.97-.42,4.43-.56a26.6,26.6,0,0,0,3.86-.63,6.76,6.76,0,0,0,2.67-1.23,2.7,2.7,0,0,0,.91-2.35,5.273,5.273,0,0,0-.53-2.56,3.914,3.914,0,0,0-1.4-1.48,5.87,5.87,0,0,0-2.04-.71,17.61,17.61,0,0,0-2.49-.17,7.609,7.609,0,0,0-4.64,1.26,5.647,5.647,0,0,0-1.97,4.21h-9.97Z" fill="#040707"/>
    <path id="Path_3198" data-name="Path 3198" d="M701.41,236.46v6.68H694.1v17.99c0,1.69.28,2.81.84,3.37s1.69.85,3.37.85c.56,0,1.1-.03,1.62-.07s1.01-.12,1.48-.21v7.73a24.482,24.482,0,0,1-2.81.28c-1.04.04-2.04.07-3.03.07a29.271,29.271,0,0,1-4.39-.31,10.286,10.286,0,0,1-3.65-1.23,6.567,6.567,0,0,1-2.49-2.6,9.294,9.294,0,0,1-.91-4.43V243.15h-6.04v-6.68h6.04v-10.9h9.98v10.9h7.3Z" fill="#040707"/>
    <path id="Path_3199" data-name="Path 3199" d="M716.3,272.78h-9.98V236.45h9.98Zm-9.97-50.17h9.98v8.22h-9.98Z" fill="#040707"/>
    <path id="Path_3200" data-name="Path 3200" d="M733.31,258.91a11.272,11.272,0,0,0,1.44,3.72,7.7,7.7,0,0,0,2.71,2.64,8.3,8.3,0,0,0,4.21.98,8.508,8.508,0,0,0,4.25-.98,7.625,7.625,0,0,0,2.74-2.64,11.272,11.272,0,0,0,1.44-3.72,21.343,21.343,0,0,0,.42-4.25,21.8,21.8,0,0,0-.42-4.28,10.914,10.914,0,0,0-1.44-3.73,7.972,7.972,0,0,0-2.74-2.64,8.231,8.231,0,0,0-4.25-1.02,7.682,7.682,0,0,0-6.92,3.66,10.914,10.914,0,0,0-1.44,3.73,21.868,21.868,0,0,0-.42,4.28,20.027,20.027,0,0,0,.42,4.25m-9.07-12.16a17.008,17.008,0,0,1,3.79-6.04,17.2,17.2,0,0,1,5.9-3.87,20.792,20.792,0,0,1,7.73-1.37,21.029,21.029,0,0,1,7.76,1.37,16.55,16.55,0,0,1,9.73,9.91,24.068,24.068,0,0,1,0,15.78,17.293,17.293,0,0,1-3.79,6.01,16.58,16.58,0,0,1-5.94,3.83,23.216,23.216,0,0,1-15.49,0,16.459,16.459,0,0,1-5.9-3.83,16.83,16.83,0,0,1-3.79-6.01,21.982,21.982,0,0,1-1.34-7.87,22.286,22.286,0,0,1,1.34-7.91" fill="#040707"/>
    <path id="Path_3201" data-name="Path 3201" d="M776.31,236.46v5.06h.21a11.375,11.375,0,0,1,4.92-4.6,14.192,14.192,0,0,1,6.18-1.44,17.061,17.061,0,0,1,6.57,1.09,9.794,9.794,0,0,1,4.04,3.02,11.518,11.518,0,0,1,2.07,4.71,29.123,29.123,0,0,1,.6,6.14v22.35h-9.98V252.27q0-4.5-1.4-6.71t-4.99-2.21q-4.065,0-5.9,2.42c-1.22,1.62-1.82,4.28-1.82,7.98V272.8h-9.98V236.47h9.48Z" fill="#040707"/>
    <path id="Path_3202" data-name="Path 3202" d="M816.75,263.76a5.789,5.789,0,0,0,1.72,1.89,7.32,7.32,0,0,0,2.42,1.09,11.648,11.648,0,0,0,2.85.35,10.817,10.817,0,0,0,2.21-.24,7.909,7.909,0,0,0,2.11-.77,4.748,4.748,0,0,0,1.58-1.41,3.7,3.7,0,0,0,.63-2.21q0-2.25-2.99-3.37a59.444,59.444,0,0,0-8.32-2.25c-1.45-.33-2.87-.72-4.25-1.16a14.316,14.316,0,0,1-3.69-1.76,8.5,8.5,0,0,1-2.6-2.74,7.728,7.728,0,0,1-.98-4.04,10.87,10.87,0,0,1,1.37-5.76,10.172,10.172,0,0,1,3.62-3.55,16.2,16.2,0,0,1,5.06-1.83,31.325,31.325,0,0,1,5.76-.53,29.15,29.15,0,0,1,5.73.56,15.233,15.233,0,0,1,4.95,1.9,11.354,11.354,0,0,1,3.62,3.55,11.787,11.787,0,0,1,1.72,5.58h-9.48a4.371,4.371,0,0,0-2.18-3.9,9.954,9.954,0,0,0-4.64-1.02,17.035,17.035,0,0,0-1.82.1,5.885,5.885,0,0,0-1.79.46,3.626,3.626,0,0,0-1.37,1.02,2.719,2.719,0,0,0-.56,1.79,2.752,2.752,0,0,0,.98,2.18,7.555,7.555,0,0,0,2.56,1.37,34.581,34.581,0,0,0,3.62.96c1.36.27,2.74.58,4.14.91,1.45.33,2.87.73,4.25,1.19a13.911,13.911,0,0,1,3.69,1.87,8.966,8.966,0,0,1,2.6,2.88,8.379,8.379,0,0,1,.98,4.25,11.6,11.6,0,0,1-1.44,6.01,11.42,11.42,0,0,1-3.76,3.9,15.188,15.188,0,0,1-5.31,2.07,30.8,30.8,0,0,1-6.08.6,30.134,30.134,0,0,1-6.18-.63,16.138,16.138,0,0,1-5.38-2.11,11.894,11.894,0,0,1-3.86-3.9,12.185,12.185,0,0,1-1.65-6.08h9.49a5.452,5.452,0,0,0,.67,2.78" fill="#040707"/>
  </g>
</svg>
